<svg width="20" height="20" viewBox="0 0 20 20" fill="none" xmlns="http://www.w3.org/2000/svg">
<path d="M11.6406 1.75C11.6406 0.920312 10.9703 0.25 10.1406 0.25C9.31094 0.25 8.64062 0.920312 8.64062 1.75V8.5H1.89062C1.06094 8.5 0.390625 9.17031 0.390625 10C0.390625 10.8297 1.06094 11.5 1.89062 11.5H8.64062V18.25C8.64062 19.0797 9.31094 19.75 10.1406 19.75C10.9703 19.75 11.6406 19.0797 11.6406 18.25V11.5H18.3906C19.2203 11.5 19.8906 10.8297 19.8906 10C19.8906 9.17031 19.2203 8.5 18.3906 8.5H11.6406V1.75Z" fill="white"/>
</svg>
