<svg width="40" height="40" viewBox="0 0 40 40" fill="none" xmlns="http://www.w3.org/2000/svg">
<path d="M0 8C0 3.58172 3.58172 0 8 0H32C36.4183 0 40 3.58172 40 8V32C40 36.4183 36.4183 40 32 40H8C3.58172 40 0 36.4183 0 32V8Z" fill="#FEF3C7"/>
<path d="M0 8C0 3.58172 3.58172 0 8 0H32C36.4183 0 40 3.58172 40 8V32C40 36.4183 36.4183 40 32 40H8C3.58172 40 0 36.4183 0 32V8Z" stroke="#E5E7EB"/>
<path d="M11 12H29V28H11V12Z" stroke="#E5E7EB"/>
<g clip-path="url(#clip0_13_1100)">
<path d="M20.9031 12.5625C20.7375 12.2188 20.3875 12 20.0031 12C19.6188 12 19.2719 12.2188 19.1031 12.5625L17.0938 16.6969L12.6063 17.3594C12.2313 17.4156 11.9188 17.6781 11.8031 18.0375C11.6875 18.3969 11.7812 18.7937 12.05 19.0594L15.3063 22.2812L14.5375 26.8344C14.475 27.2094 14.6312 27.5906 14.9406 27.8125C15.25 28.0344 15.6594 28.0625 15.9969 27.8844L20.0063 25.7437L24.0156 27.8844C24.3531 28.0625 24.7625 28.0375 25.0719 27.8125C25.3812 27.5875 25.5375 27.2094 25.475 26.8344L24.7031 22.2812L27.9594 19.0594C28.2281 18.7937 28.325 18.3969 28.2062 18.0375C28.0875 17.6781 27.7781 17.4156 27.4031 17.3594L22.9125 16.6969L20.9031 12.5625Z" fill="#D97706"/>
</g>
<defs>
<clipPath id="clip0_13_1100">
<path d="M11 12H29V28H11V12Z" fill="white"/>
</clipPath>
</defs>
</svg>
