<svg width="40" height="40" viewBox="0 0 40 40" fill="none" xmlns="http://www.w3.org/2000/svg">
<path d="M0 8C0 3.58172 3.58172 0 8 0H32C36.4183 0 40 3.58172 40 8V32C40 36.4183 36.4183 40 32 40H8C3.58172 40 0 36.4183 0 32V8Z" fill="#D1FAE5"/>
<path d="M0 8C0 3.58172 3.58172 0 8 0H32C36.4183 0 40 3.58172 40 8V32C40 36.4183 36.4183 40 32 40H8C3.58172 40 0 36.4183 0 32V8Z" stroke="#E5E7EB"/>
<path d="M11 12H29V28H11V12Z" stroke="#E5E7EB"/>
<g clip-path="url(#clip0_13_1096)">
<path d="M23.5 12H16.5C15.6719 12 14.9969 12.6813 15.0281 13.5063C15.0344 13.6719 15.0406 13.8375 15.05 14H11.75C11.3344 14 11 14.3344 11 14.75C11 17.6438 12.0469 19.6563 13.4531 21.0219C14.8375 22.3688 16.525 23.0469 17.7688 23.3906C18.5 23.5938 19 24.2031 19 24.8156C19 25.4688 18.4688 26 17.8156 26H17C16.4469 26 16 26.4469 16 27C16 27.5531 16.4469 28 17 28H23C23.5531 28 24 27.5531 24 27C24 26.4469 23.5531 26 23 26H22.1844C21.5312 26 21 25.4688 21 24.8156C21 24.2031 21.4969 23.5906 22.2312 23.3906C23.4781 23.0469 25.1656 22.3688 26.55 21.0219C27.9531 19.6563 29 17.6438 29 14.75C29 14.3344 28.6656 14 28.25 14H24.95C24.9594 13.8375 24.9656 13.675 24.9719 13.5063C25.0031 12.6813 24.3281 12 23.5 12ZM12.5281 15.5H15.1656C15.45 18.3156 16.0781 20.1969 16.7875 21.4563C16.0094 21.1125 15.2 20.6281 14.5 19.9469C13.5 18.975 12.6875 17.5719 12.5312 15.5H12.5281ZM25.5031 19.9469C24.8031 20.6281 23.9937 21.1125 23.2156 21.4563C23.925 20.1969 24.5531 18.3156 24.8375 15.5H27.475C27.3156 17.5719 26.5031 18.975 25.5063 19.9469H25.5031Z" fill="#059669"/>
</g>
<defs>
<clipPath id="clip0_13_1096">
<path d="M11 12H29V28H11V12Z" fill="white"/>
</clipPath>
</defs>
</svg>
