<svg width="48" height="48" viewBox="0 0 48 48" fill="none" xmlns="http://www.w3.org/2000/svg">
<path d="M0 8C0 3.58172 3.58172 0 8 0H40C44.4183 0 48 3.58172 48 8V40C48 44.4183 44.4183 48 40 48H8C3.58172 48 0 44.4183 0 40V8Z" fill="#EDE9FE"/>
<path d="M0 8C0 3.58172 3.58172 0 8 0H40C44.4183 0 48 3.58172 48 8V40C48 44.4183 44.4183 48 40 48H8C3.58172 48 0 44.4183 0 40V8Z" stroke="#E5E7EB"/>
<path d="M12.75 14H35.25V34H12.75V14Z" stroke="#E5E7EB"/>
<g clip-path="url(#clip0_13_1016)">
<path d="M28.375 14H19.625C18.5898 14 17.7461 14.8516 17.7852 15.8828C17.793 16.0898 17.8008 16.2969 17.8125 16.5H13.6875C13.168 16.5 12.75 16.918 12.75 17.4375C12.75 21.0547 14.0586 23.5703 15.8164 25.2773C17.5469 26.9609 19.6563 27.8086 21.2109 28.2383C22.125 28.4922 22.75 29.2539 22.75 30.0195C22.75 30.8359 22.0859 31.5 21.2695 31.5H20.25C19.5586 31.5 19 32.0586 19 32.75C19 33.4414 19.5586 34 20.25 34H27.75C28.4414 34 29 33.4414 29 32.75C29 32.0586 28.4414 31.5 27.75 31.5H26.7305C25.9141 31.5 25.25 30.8359 25.25 30.0195C25.25 29.2539 25.8711 28.4883 26.7891 28.2383C28.3477 27.8086 30.457 26.9609 32.1875 25.2773C33.9414 23.5703 35.25 21.0547 35.25 17.4375C35.25 16.918 34.832 16.5 34.3125 16.5H30.1875C30.1992 16.2969 30.207 16.0938 30.2148 15.8828C30.2539 14.8516 29.4102 14 28.375 14ZM14.6602 18.375H17.957C18.3125 21.8945 19.0977 24.2461 19.9844 25.8203C19.0117 25.3906 18 24.7852 17.125 23.9336C15.875 22.7188 14.8594 20.9648 14.6641 18.375H14.6602ZM30.8789 23.9336C30.0039 24.7852 28.9922 25.3906 28.0195 25.8203C28.9062 24.2461 29.6914 21.8945 30.0469 18.375H33.3438C33.1445 20.9648 32.1289 22.7188 30.8828 23.9336H30.8789Z" fill="#7C3AED"/>
</g>
<defs>
<clipPath id="clip0_13_1016">
<path d="M12.75 14H35.25V34H12.75V14Z" fill="white"/>
</clipPath>
</defs>
</svg>
