<svg width="48" height="48" viewBox="0 0 48 48" fill="none" xmlns="http://www.w3.org/2000/svg">
<path d="M0 8C0 3.58172 3.58172 0 8 0H40C44.4183 0 48 3.58172 48 8V40C48 44.4183 44.4183 48 40 48H8C3.58172 48 0 44.4183 0 40V8Z" fill="#FEF3C7"/>
<path d="M0 8C0 3.58172 3.58172 0 8 0H40C44.4183 0 48 3.58172 48 8V40C48 44.4183 44.4183 48 40 48H8C3.58172 48 0 44.4183 0 40V8Z" stroke="#E5E7EB"/>
<path d="M14 14H34V34H14V14Z" stroke="#E5E7EB"/>
<g clip-path="url(#clip0_13_1020)">
<path d="M14.1602 15.4922C14.0547 15.3359 14 15.1484 14 14.9609C14 14.4297 14.4297 14 14.9609 14H19.2305C19.668 14 20.0781 14.2305 20.3008 14.6055L22.9766 19.0625C21.0938 19.3008 19.4102 20.1797 18.1562 21.4805L14.1602 15.4922ZM33.8359 15.4922L29.8438 21.4805C28.5898 20.1797 26.9063 19.3008 25.0234 19.0625L27.6992 14.6055C27.9258 14.2305 28.332 14 28.7695 14H33.0391C33.5703 14 34 14.4297 34 14.9609C34 15.1484 33.9453 15.3359 33.8398 15.4922H33.8359ZM17.125 27.125C17.125 25.3016 17.8493 23.553 19.1386 22.2636C20.428 20.9743 22.1766 20.25 24 20.25C25.8234 20.25 27.572 20.9743 28.8614 22.2636C30.1507 23.553 30.875 25.3016 30.875 27.125C30.875 28.9484 30.1507 30.697 28.8614 31.9864C27.572 33.2757 25.8234 34 24 34C22.1766 34 20.428 33.2757 19.1386 31.9864C17.8493 30.697 17.125 28.9484 17.125 27.125ZM24.3281 23.418C24.1953 23.1445 23.8086 23.1445 23.6719 23.418L22.7969 25.1914C22.7422 25.3008 22.6406 25.375 22.5234 25.3906L20.5625 25.6758C20.2617 25.7188 20.1445 26.0859 20.3594 26.3008L21.7773 27.6836C21.8633 27.7695 21.9023 27.8867 21.8828 28.0078L21.5469 29.957C21.4961 30.2539 21.8086 30.4844 22.0781 30.3438L23.8281 29.4219C23.9336 29.3672 24.0625 29.3672 24.168 29.4219L25.918 30.3438C26.1875 30.4844 26.5 30.2578 26.4492 29.957L26.1133 28.0078C26.0938 27.8906 26.1328 27.7695 26.2188 27.6836L27.6367 26.3008C27.8555 26.0898 27.7344 25.7227 27.4336 25.6758L25.4766 25.3906C25.3594 25.375 25.2539 25.2969 25.2031 25.1914L24.3281 23.418Z" fill="#D97706"/>
</g>
<defs>
<clipPath id="clip0_13_1020">
<path d="M14 14H34V34H14V14Z" fill="white"/>
</clipPath>
</defs>
</svg>
