<svg width="32" height="32" viewBox="0 0 32 32" fill="none" xmlns="http://www.w3.org/2000/svg">
<path d="M0 8C0 3.58172 3.58172 0 8 0H24C28.4183 0 32 3.58172 32 8V24C32 28.4183 28.4183 32 24 32H8C3.58172 32 0 28.4183 0 24V8Z" fill="#E0E7FF"/>
<path d="M0 8C0 3.58172 3.58172 0 8 0H24C28.4183 0 32 3.58172 32 8V24C32 28.4183 28.4183 32 24 32H8C3.58172 32 0 28.4183 0 24V8Z" stroke="#E5E7EB"/>
<path d="M8 8H24V24H8V8Z" stroke="#E5E7EB"/>
<g clip-path="url(#clip0_13_3672)">
<path d="M16 8C16.1438 8 16.2875 8.03125 16.4188 8.09063L22.3031 10.5875C22.9906 10.8781 23.5031 11.5563 23.5 12.375C23.4844 15.475 22.2094 21.1469 16.825 23.725C16.3031 23.975 15.6969 23.975 15.175 23.725C9.79064 21.1469 8.51564 15.475 8.50001 12.375C8.49689 11.5563 9.00939 10.8781 9.69689 10.5875L15.5844 8.09063C15.7125 8.03125 15.8563 8 16 8ZM16 10.0875V21.9C20.3125 19.8125 21.4719 15.1906 21.5 12.4187L16 10.0875Z" fill="#4F46E5"/>
</g>
<defs>
<clipPath id="clip0_13_3672">
<path d="M8 8H24V24H8V8Z" fill="white"/>
</clipPath>
</defs>
</svg>
