<svg width="32" height="32" viewBox="0 0 32 32" fill="none" xmlns="http://www.w3.org/2000/svg">
<path d="M0 8C0 3.58172 3.58172 0 8 0H24C28.4183 0 32 3.58172 32 8V24C32 28.4183 28.4183 32 24 32H8C3.58172 32 0 28.4183 0 24V8Z" fill="#DBEAFE"/>
<path d="M0 8C0 3.58172 3.58172 0 8 0H24C28.4183 0 32 3.58172 32 8V24C32 28.4183 28.4183 32 24 32H8C3.58172 32 0 28.4183 0 24V8Z" stroke="#E5E7EB"/>
<path d="M9 8H23V24H9V8Z" stroke="#E5E7EB"/>
<g clip-path="url(#clip0_13_3666)">
<path d="M23 10.5V12C23 13.3812 19.8656 14.5 16 14.5C12.1344 14.5 9 13.3812 9 12V10.5C9 9.11875 12.1344 8 16 8C19.8656 8 23 9.11875 23 10.5ZM21.2875 14.7094C21.9375 14.4781 22.5344 14.1813 23 13.8156V17C23 18.3813 19.8656 19.5 16 19.5C12.1344 19.5 9 18.3813 9 17V13.8156C9.46562 14.1844 10.0625 14.4781 10.7125 14.7094C12.1156 15.2094 13.9844 15.5 16 15.5C18.0156 15.5 19.8844 15.2094 21.2875 14.7094ZM9 18.8156C9.46562 19.1844 10.0625 19.4781 10.7125 19.7094C12.1156 20.2094 13.9844 20.5 16 20.5C18.0156 20.5 19.8844 20.2094 21.2875 19.7094C21.9375 19.4781 22.5344 19.1813 23 18.8156V21.5C23 22.8813 19.8656 24 16 24C12.1344 24 9 22.8813 9 21.5V18.8156Z" fill="#2563EB"/>
</g>
<defs>
<clipPath id="clip0_13_3666">
<path d="M9 8H23V24H9V8Z" fill="white"/>
</clipPath>
</defs>
</svg>
