<svg width="34" height="40" viewBox="0 0 34 40" fill="none" xmlns="http://www.w3.org/2000/svg">
<path d="M0 12C0 5.37258 5.37258 0 12 0H21.0625C27.6899 0 33.0625 5.37258 33.0625 12V28C33.0625 34.6274 27.6899 40 21.0625 40H12C5.37258 40 0 34.6274 0 28V12Z" fill="#FEF3C7"/>
<path d="M0 12C0 5.37258 5.37258 0 12 0H21.0625C27.6899 0 33.0625 5.37258 33.0625 12V28C33.0625 34.6274 27.6899 40 21.0625 40H12C5.37258 40 0 34.6274 0 28V12Z" stroke="#E5E7EB"/>
<path d="M8.53125 12H24.5312V28H8.53125V12Z" stroke="#E5E7EB"/>
<g clip-path="url(#clip0_13_1926)">
<path d="M24.5312 14.5C24.5312 15.0625 24.0844 15.5812 23.3313 16C22.4219 16.5031 21.0656 16.8594 19.5094 16.9656C19.3937 16.9094 19.2781 16.8562 19.1562 16.8094C17.925 16.2937 16.2875 16 14.5312 16C14.2719 16 14.0188 16.0063 13.7656 16.0188L13.7312 16C12.9781 15.5812 12.5312 15.0625 12.5312 14.5C12.5312 13.1187 15.2188 12 18.5312 12C21.8438 12 24.5312 13.1187 24.5312 14.5ZM13.5531 17.0344C13.8719 17.0125 14.2 17 14.5312 17C16.475 17 18.2 17.3844 19.2969 17.9812C20.0719 18.4031 20.5312 18.9281 20.5312 19.5C20.5312 19.625 20.5094 19.7469 20.4656 19.8656C20.3219 20.2781 19.9344 20.6562 19.3719 20.975C19.3687 20.9781 19.3625 20.9781 19.3594 20.9812C19.35 20.9875 19.3406 20.9906 19.3313 20.9969C18.2375 21.6031 16.4938 21.9969 14.5312 21.9969C12.6687 21.9969 11.0031 21.6437 9.9 21.0875C9.84062 21.0594 9.78437 21.0281 9.72812 20.9969C8.97812 20.5813 8.53125 20.0625 8.53125 19.5C8.53125 18.4125 10.2 17.4844 12.5312 17.1438C12.8594 17.0969 13.2 17.0594 13.5531 17.0344ZM21.5312 19.5C21.5312 18.8156 21.2 18.2531 20.7781 17.8313C21.6625 17.6938 22.4719 17.475 23.1594 17.1906C23.6687 16.9781 24.1438 16.7156 24.5312 16.3938V17.5C24.5312 18.1031 24.0156 18.6594 23.1625 19.0906C22.7063 19.3219 22.15 19.5187 21.525 19.6687C21.5281 19.6125 21.5312 19.5594 21.5312 19.5031V19.5ZM20.5312 22.5C20.5312 23.0625 20.0844 23.5813 19.3313 24C19.275 24.0312 19.2188 24.0594 19.1594 24.0906C18.0594 24.6469 16.3938 25 14.5312 25C12.5687 25 10.825 24.6062 9.73125 24C8.97813 23.5813 8.53125 23.0625 8.53125 22.5V21.3938C8.92188 21.7156 9.39375 21.9781 9.90313 22.1906C11.1375 22.7063 12.775 23 14.5312 23C16.2875 23 17.925 22.7063 19.1594 22.1906C19.4031 22.0906 19.6375 21.975 19.8594 21.85C20.05 21.7438 20.2281 21.625 20.3969 21.5C20.4438 21.4656 20.4875 21.4281 20.5312 21.3938V21.5V21.6781V22.5ZM21.5312 22.5V21.5V20.6906C22.125 20.5594 22.6719 20.3938 23.1594 20.1906C23.6687 19.9781 24.1438 19.7156 24.5312 19.3938V20.5C24.5312 20.8281 24.375 21.1562 24.0656 21.4656C23.5563 21.975 22.6594 22.3937 21.525 22.6656C21.5281 22.6125 21.5312 22.5562 21.5312 22.5ZM14.5312 26C16.2875 26 17.925 25.7063 19.1594 25.1906C19.6687 24.9781 20.1438 24.7156 20.5312 24.3938V25.5C20.5312 26.8813 17.8438 28 14.5312 28C11.2188 28 8.53125 26.8813 8.53125 25.5V24.3938C8.92188 24.7156 9.39375 24.9781 9.90313 25.1906C11.1375 25.7063 12.775 26 14.5312 26Z" fill="#D97706"/>
</g>
<defs>
<clipPath id="clip0_13_1926">
<path d="M8.53125 12H24.5312V28H8.53125V12Z" fill="white"/>
</clipPath>
</defs>
</svg>
