<svg width="40" height="40" viewBox="0 0 40 40" fill="none" xmlns="http://www.w3.org/2000/svg">
<path d="M0 12C0 5.37258 5.37258 0 12 0H28C34.6274 0 40 5.37258 40 12V28C40 34.6274 34.6274 40 28 40H12C5.37258 40 0 34.6274 0 28V12Z" fill="#DCFCE7"/>
<path d="M0 12C0 5.37258 5.37258 0 12 0H28C34.6274 0 40 5.37258 40 12V28C40 34.6274 34.6274 40 28 40H12C5.37258 40 0 34.6274 0 28V12Z" stroke="#E5E7EB"/>
<path d="M13 12H27V28H13V12Z" stroke="#E5E7EB"/>
<g clip-path="url(#clip0_13_1921)">
<path d="M23.7063 14.7063C24.0969 14.3156 24.0969 13.6813 23.7063 13.2906C23.3156 12.9 22.6813 12.9 22.2906 13.2906L18 17.5844L16.2063 15.7906C15.8156 15.4 15.1813 15.4 14.7906 15.7906C14.4 16.1813 14.4 16.8156 14.7906 17.2063L17.2906 19.7063C17.6813 20.0969 18.3156 20.0969 18.7063 19.7063L23.7063 14.7063ZM26.7063 18.7063C27.0969 18.3156 27.0969 17.6813 26.7063 17.2906C26.3156 16.9 25.6813 16.9 25.2906 17.2906L18 24.5844L14.7063 21.2938C14.3156 20.9031 13.6813 20.9031 13.2906 21.2938C12.9 21.6844 12.9 22.3188 13.2906 22.7094L17.2906 26.7094C17.6813 27.1 18.3156 27.1 18.7063 26.7094L26.7063 18.7094V18.7063Z" fill="#16A34A"/>
</g>
<defs>
<clipPath id="clip0_13_1921">
<path d="M13 12H27V28H13V12Z" fill="white"/>
</clipPath>
</defs>
</svg>
