<svg width="21" height="20" viewBox="0 0 21 20" fill="none" xmlns="http://www.w3.org/2000/svg">
<g clip-path="url(#clip0_13_2843)">
<path d="M7.98828 2.6875L9.34766 5H9.29688H6.48438C5.62109 5 4.92188 4.30078 4.92188 3.4375C4.92188 2.57422 5.62109 1.875 6.48438 1.875H6.57031C7.15234 1.875 7.69531 2.18359 7.98828 2.6875ZM3.04688 3.4375C3.04688 4 3.18359 4.53125 3.42188 5H1.79688C1.10547 5 0.546875 5.55859 0.546875 6.25V8.75C0.546875 9.44141 1.10547 10 1.79688 10H19.2969C19.9883 10 20.5469 9.44141 20.5469 8.75V6.25C20.5469 5.55859 19.9883 5 19.2969 5H17.6719C17.9102 4.53125 18.0469 4 18.0469 3.4375C18.0469 1.53906 16.5078 0 14.6094 0H14.5234C13.2773 0 12.1211 0.660156 11.4883 1.73438L10.5469 3.33984L9.60547 1.73828C8.97266 0.660156 7.81641 0 6.57031 0H6.48438C4.58594 0 3.04688 1.53906 3.04688 3.4375ZM16.1719 3.4375C16.1719 4.30078 15.4727 5 14.6094 5H11.7969H11.7461L13.1055 2.6875C13.4023 2.18359 13.9414 1.875 14.5234 1.875H14.6094C15.4727 1.875 16.1719 2.57422 16.1719 3.4375ZM1.79688 11.25V18.125C1.79688 19.1602 2.63672 20 3.67188 20H9.29688V11.25H1.79688ZM11.7969 20H17.4219C18.457 20 19.2969 19.1602 19.2969 18.125V11.25H11.7969V20Z" fill="white"/>
</g>
<defs>
<clipPath id="clip0_13_2843">
<path d="M0.546875 0H20.5469V20H0.546875V0Z" fill="white"/>
</clipPath>
</defs>
</svg>
