<svg width="49" height="48" viewBox="0 0 49 48" fill="none" xmlns="http://www.w3.org/2000/svg">
<path d="M0.75 24C0.75 10.7452 11.4952 0 24.75 0C38.0048 0 48.75 10.7452 48.75 24C48.75 37.2548 38.0048 48 24.75 48C11.4952 48 0.75 37.2548 0.75 24Z" fill="#3B82F6"/>
<path d="M0.75 24C0.75 10.7452 11.4952 0 24.75 0C38.0048 0 48.75 10.7452 48.75 24C48.75 37.2548 38.0048 48 24.75 48C11.4952 48 0.75 37.2548 0.75 24Z" stroke="#E5E7EB"/>
<path d="M18.5 14H31V34H18.5V14Z" stroke="#E5E7EB"/>
<path d="M18.5 14H31V34H18.5V14Z" stroke="#E5E7EB"/>
<path d="M29.4039 25.25L29.9594 21.6305H26.4864V19.2816C26.4864 18.2914 26.9715 17.3262 28.527 17.3262H30.1059V14.2445C30.1059 14.2445 28.6731 14 27.3031 14C24.443 14 22.5735 15.7336 22.5735 18.8719V21.6305H19.3942V25.25H22.5735V34H26.4864V25.25H29.4039Z" fill="white"/>
</svg>
