<svg width="12" height="16" viewBox="0 0 12 16" fill="none" xmlns="http://www.w3.org/2000/svg">
<path d="M2.82812 5.5C2.82812 5.04037 2.91866 4.58525 3.09455 4.16061C3.27044 3.73597 3.52825 3.35013 3.85325 3.02513C4.17826 2.70012 4.56409 2.44231 4.98873 2.26642C5.41337 2.09053 5.8685 2 6.32812 2C6.78775 2 7.24288 2.09053 7.66752 2.26642C8.09216 2.44231 8.47799 2.70012 8.803 3.02513C9.128 3.35013 9.38581 3.73597 9.5617 4.16061C9.7376 4.58525 9.82813 5.04037 9.82812 5.5C9.82813 5.95963 9.7376 6.41475 9.5617 6.83939C9.38581 7.26403 9.128 7.64987 8.803 7.97487C8.47799 8.29988 8.09216 8.55769 7.66752 8.73358C7.24288 8.90947 6.78775 9 6.32812 9C5.8685 9 5.41337 8.90947 4.98873 8.73358C4.56409 8.55769 4.17826 8.29988 3.85325 7.97487C3.52825 7.64987 3.27044 7.26403 3.09455 6.83939C2.91866 6.41475 2.82812 5.95963 2.82812 5.5ZM7.32812 10.9094C9.8875 10.4406 11.8281 8.19688 11.8281 5.5C11.8281 2.4625 9.36562 0 6.32812 0C3.29063 0 0.828125 2.4625 0.828125 5.5C0.828125 8.19688 2.76875 10.4406 5.32812 10.9094V12H4.32812C3.775 12 3.32812 12.4469 3.32812 13C3.32812 13.5531 3.775 14 4.32812 14H5.32812V15C5.32812 15.5531 5.775 16 6.32812 16C6.88125 16 7.32812 15.5531 7.32812 15V14H8.32812C8.88125 14 9.32812 13.5531 9.32812 13C9.32812 12.4469 8.88125 12 8.32812 12H7.32812V10.9094Z" fill="#1E1B4B"/>
</svg>
