<svg width="14" height="16" viewBox="0 0 14 16" fill="none" xmlns="http://www.w3.org/2000/svg">
<g clip-path="url(#clip0_13_1231)">
<g clip-path="url(#clip1_13_1231)">
<path d="M10.9188 1.39375C11.1032 0.965625 10.9657 0.465625 10.5876 0.190625C10.2094 -0.0843746 9.69382 -0.0593746 9.3407 0.246875L1.3407 7.24688C1.0282 7.52188 0.9157 7.9625 1.06257 8.35C1.20945 8.7375 1.58445 9 2.00007 9H5.48445L3.08132 14.6062C2.89695 15.0344 3.03445 15.5344 3.41257 15.8094C3.7907 16.0844 4.30632 16.0594 4.65945 15.7531L12.6594 8.75313C12.9719 8.47813 13.0844 8.0375 12.9376 7.65C12.7907 7.2625 12.4188 7.00313 12.0001 7.00313H8.5157L10.9188 1.39375Z" fill="#EAB308"/>
</g>
</g>
<defs>
<clipPath id="clip0_13_1231">
<rect width="14" height="16" fill="white"/>
</clipPath>
<clipPath id="clip1_13_1231">
<path d="M0 0H14V16H0V0Z" fill="white"/>
</clipPath>
</defs>
</svg>
