<svg width="23" height="18" viewBox="0 0 23 18" fill="none" xmlns="http://www.w3.org/2000/svg">
<g clip-path="url(#clip0_13_1057)">
<g clip-path="url(#clip1_13_1057)">
<path d="M6.75 2.25C3.02344 2.25 0 5.27344 0 9C0 12.7266 3.02344 15.75 6.75 15.75H15.75C19.4766 15.75 22.5 12.7266 22.5 9C22.5 5.27344 19.4766 2.25 15.75 2.25H6.75ZM17.4375 5.90625C17.8105 5.90625 18.1681 6.05441 18.4319 6.31813C18.6956 6.58185 18.8438 6.93954 18.8438 7.3125C18.8438 7.68546 18.6956 8.04315 18.4319 8.30687C18.1681 8.57059 17.8105 8.71875 17.4375 8.71875C17.0645 8.71875 16.7069 8.57059 16.4431 8.30687C16.1794 8.04315 16.0312 7.68546 16.0312 7.3125C16.0312 6.93954 16.1794 6.58185 16.4431 6.31813C16.7069 6.05441 17.0645 5.90625 17.4375 5.90625ZM13.7812 10.6875C13.7812 10.3145 13.9294 9.95685 14.1931 9.69313C14.4569 9.42941 14.8145 9.28125 15.1875 9.28125C15.5605 9.28125 15.9181 9.42941 16.1819 9.69313C16.4456 9.95685 16.5938 10.3145 16.5938 10.6875C16.5938 11.0605 16.4456 11.4181 16.1819 11.6819C15.9181 11.9456 15.5605 12.0938 15.1875 12.0938C14.8145 12.0938 14.4569 11.9456 14.1931 11.6819C13.9294 11.4181 13.7812 11.0605 13.7812 10.6875ZM5.90625 7.03125C5.90625 6.56367 6.28242 6.1875 6.75 6.1875C7.21758 6.1875 7.59375 6.56367 7.59375 7.03125V8.15625H8.71875C9.18633 8.15625 9.5625 8.53242 9.5625 9C9.5625 9.46758 9.18633 9.84375 8.71875 9.84375H7.59375V10.9688C7.59375 11.4363 7.21758 11.8125 6.75 11.8125C6.28242 11.8125 5.90625 11.4363 5.90625 10.9688V9.84375H4.78125C4.31367 9.84375 3.9375 9.46758 3.9375 9C3.9375 8.53242 4.31367 8.15625 4.78125 8.15625H5.90625V7.03125Z" fill="#7C3AED"/>
</g>
</g>
<defs>
<clipPath id="clip0_13_1057">
<rect width="22.5" height="18" fill="white"/>
</clipPath>
<clipPath id="clip1_13_1057">
<path d="M0 0H22.5V18H0V0Z" fill="white"/>
</clipPath>
</defs>
</svg>
