<svg width="61" height="64" viewBox="0 0 61 64" fill="none" xmlns="http://www.w3.org/2000/svg">
<path d="M0 12C0 5.37258 5.37258 0 12 0H52C58.6274 0 64 5.37258 64 12V52C64 58.6274 58.6274 64 52 64H12C5.37258 64 0 58.6274 0 52V12Z" fill="#F3F4F6"/>
<path d="M0 12C0 5.37258 5.37258 0 12 0H52C58.6274 0 64 5.37258 64 12V52C64 58.6274 58.6274 64 52 64H12C5.37258 64 0 58.6274 0 52V12Z" stroke="#E5E7EB"/>
<path d="M17 20H47V44H17V20Z" stroke="#E5E7EB"/>
<path d="M17 20H47V44H17V20Z" stroke="#E5E7EB"/>
<path d="M26 23C21.0312 23 17 27.0312 17 32C17 36.9688 21.0312 41 26 41H38C42.9688 41 47 36.9688 47 32C47 27.0312 42.9688 23 38 23H26ZM40.25 27.875C40.7473 27.875 41.2242 28.0725 41.5758 28.4242C41.9275 28.7758 42.125 29.2527 42.125 29.75C42.125 30.2473 41.9275 30.7242 41.5758 31.0758C41.2242 31.4275 40.7473 31.625 40.25 31.625C39.7527 31.625 39.2758 31.4275 38.9242 31.0758C38.5725 30.7242 38.375 30.2473 38.375 29.75C38.375 29.2527 38.5725 28.7758 38.9242 28.4242C39.2758 28.0725 39.7527 27.875 40.25 27.875ZM35.375 34.25C35.375 33.7527 35.5725 33.2758 35.9242 32.9242C36.2758 32.5725 36.7527 32.375 37.25 32.375C37.7473 32.375 38.2242 32.5725 38.5758 32.9242C38.9275 33.2758 39.125 33.7527 39.125 34.25C39.125 34.7473 38.9275 35.2242 38.5758 35.5758C38.2242 35.9275 37.7473 36.125 37.25 36.125C36.7527 36.125 36.2758 35.9275 35.9242 35.5758C35.5725 35.2242 35.375 34.7473 35.375 34.25ZM24.875 29.375C24.875 28.7516 25.3766 28.25 26 28.25C26.6234 28.25 27.125 28.7516 27.125 29.375V30.875H28.625C29.2484 30.875 29.75 31.3766 29.75 32C29.75 32.6234 29.2484 33.125 28.625 33.125H27.125V34.625C27.125 35.2484 26.6234 35.75 26 35.75C25.3766 35.75 24.875 35.2484 24.875 34.625V33.125H23.375C22.7516 33.125 22.25 32.6234 22.25 32C22.25 31.3766 22.7516 30.875 23.375 30.875H24.875V29.375Z" fill="#9CA3AF"/>
</svg>
