<svg width="18" height="20" viewBox="0 0 18 20" fill="none" xmlns="http://www.w3.org/2000/svg">
<path d="M0.25 0H17.75V20H0.25V0Z" stroke="#E5E7EB"/>
<g clip-path="url(#clip0_13_2823)">
<path d="M6.5 4.375C6.5 2.99609 7.62109 1.875 9 1.875C10.3789 1.875 11.5 2.99609 11.5 4.375V6.25H6.5V4.375ZM4.625 6.25H2.125C1.08984 6.25 0.25 7.08984 0.25 8.125V16.25C0.25 18.3203 1.92969 20 4 20H14C16.0703 20 17.75 18.3203 17.75 16.25V8.125C17.75 7.08984 16.9102 6.25 15.875 6.25H13.375V4.375C13.375 1.95703 11.418 0 9 0C6.58203 0 4.625 1.95703 4.625 4.375V6.25ZM5.5625 8.125C5.81114 8.125 6.0496 8.22377 6.22541 8.39959C6.40123 8.5754 6.5 8.81386 6.5 9.0625C6.5 9.31114 6.40123 9.5496 6.22541 9.72541C6.0496 9.90123 5.81114 10 5.5625 10C5.31386 10 5.0754 9.90123 4.89959 9.72541C4.72377 9.5496 4.625 9.31114 4.625 9.0625C4.625 8.81386 4.72377 8.5754 4.89959 8.39959C5.0754 8.22377 5.31386 8.125 5.5625 8.125ZM11.5 9.0625C11.5 8.81386 11.5988 8.5754 11.7746 8.39959C11.9504 8.22377 12.1889 8.125 12.4375 8.125C12.6861 8.125 12.9246 8.22377 13.1004 8.39959C13.2762 8.5754 13.375 8.81386 13.375 9.0625C13.375 9.31114 13.2762 9.5496 13.1004 9.72541C12.9246 9.90123 12.6861 10 12.4375 10C12.1889 10 11.9504 9.90123 11.7746 9.72541C11.5988 9.5496 11.5 9.31114 11.5 9.0625Z" fill="white"/>
</g>
<defs>
<clipPath id="clip0_13_2823">
<path d="M0.25 0H17.75V20H0.25V0Z" fill="white"/>
</clipPath>
</defs>
</svg>
