<svg width="80" height="80" viewBox="0 0 80 80" fill="none" xmlns="http://www.w3.org/2000/svg">
<path d="M0 40C0 17.9086 17.9086 0 40 0C62.0914 0 80 17.9086 80 40C80 62.0914 62.0914 80 40 80C17.9086 80 0 62.0914 0 40Z" fill="white" fill-opacity="0.2"/>
<path d="M0 40C0 17.9086 17.9086 0 40 0C62.0914 0 80 17.9086 80 40C80 62.0914 62.0914 80 40 80C17.9086 80 0 62.0914 0 40Z" stroke="#E5E7EB"/>
<path d="M25 25H55V55H25V25Z" stroke="#E5E7EB"/>
<g clip-path="url(#clip0_13_3956)">
<path d="M36.1621 29.0312L38.2012 32.5H38.125H33.9062C32.6113 32.5 31.5625 31.4512 31.5625 30.1562C31.5625 28.8613 32.6113 27.8125 33.9062 27.8125H34.0352C34.9082 27.8125 35.7227 28.2754 36.1621 29.0312ZM28.75 30.1562C28.75 31 28.9551 31.7969 29.3125 32.5H26.875C25.8379 32.5 25 33.3379 25 34.375V38.125C25 39.1621 25.8379 40 26.875 40H53.125C54.1621 40 55 39.1621 55 38.125V34.375C55 33.3379 54.1621 32.5 53.125 32.5H50.6875C51.0449 31.7969 51.25 31 51.25 30.1562C51.25 27.3086 48.9414 25 46.0938 25H45.9648C44.0957 25 42.3613 25.9902 41.4121 27.6016L40 30.0098L38.5879 27.6074C37.6387 25.9902 35.9043 25 34.0352 25H33.9062C31.0586 25 28.75 27.3086 28.75 30.1562ZM48.4375 30.1562C48.4375 31.4512 47.3887 32.5 46.0938 32.5H41.875H41.7988L43.8379 29.0312C44.2832 28.2754 45.0918 27.8125 45.9648 27.8125H46.0938C47.3887 27.8125 48.4375 28.8613 48.4375 30.1562ZM26.875 41.875V52.1875C26.875 53.7402 28.1348 55 29.6875 55H38.125V41.875H26.875ZM41.875 55H50.3125C51.8652 55 53.125 53.7402 53.125 52.1875V41.875H41.875V55Z" fill="white"/>
</g>
<defs>
<clipPath id="clip0_13_3956">
<path d="M25 25H55V55H25V25Z" fill="white"/>
</clipPath>
</defs>
</svg>
