<svg width="17" height="16" viewBox="0 0 17 16" fill="none" xmlns="http://www.w3.org/2000/svg">
<g clip-path="url(#clip0_13_1104)">
<g clip-path="url(#clip1_13_1104)">
<path d="M4.60001 1.05625C4.74064 0.865625 4.96564 0.75 5.20314 0.75H12.7031C12.9406 0.75 13.1656 0.8625 13.3063 1.05625L16.8063 5.80625C17.0188 6.09375 16.9969 6.49062 16.7594 6.75625L9.50939 14.7563C9.36876 14.9125 9.16564 15.0031 8.95314 15.0031C8.74064 15.0031 8.54064 14.9125 8.39689 14.7563L1.14689 6.75625C0.906262 6.49062 0.887512 6.09375 1.10001 5.80625L4.60001 1.05625ZM5.80314 2.3C5.70001 2.37812 5.67189 2.51875 5.73751 2.62812L7.53126 5.61562L2.93126 6C2.80314 6.00938 2.70314 6.11875 2.70314 6.25C2.70314 6.38125 2.80314 6.4875 2.93126 6.5L8.93126 7C8.94376 7 8.95939 7 8.97189 7L14.9719 6.5C15.1 6.49062 15.2 6.38125 15.2 6.25C15.2 6.11875 15.1 6.0125 14.9719 6L10.375 5.61875L12.1688 2.63125C12.2344 2.52187 12.2063 2.37812 12.1031 2.30312C12 2.22812 11.8563 2.24062 11.7688 2.33437L8.95314 5.38125L6.13751 2.33125C6.05001 2.2375 5.90626 2.225 5.80314 2.3Z" fill="#7C3AED"/>
</g>
</g>
<defs>
<clipPath id="clip0_13_1104">
<rect width="16" height="16" fill="white" transform="translate(0.953125)"/>
</clipPath>
<clipPath id="clip1_13_1104">
<path d="M0.953125 0H16.9531V16H0.953125V0Z" fill="white"/>
</clipPath>
</defs>
</svg>
