<svg width="16" height="16" viewBox="0 0 16 16" fill="none" xmlns="http://www.w3.org/2000/svg">
<g clip-path="url(#clip0_13_146)">
<g clip-path="url(#clip1_13_146)">
<path d="M15.625 8.18125C15.625 12.6031 12.5969 15.75 8.125 15.75C3.8375 15.75 0.375 12.2875 0.375 8C0.375 3.7125 3.8375 0.25 8.125 0.25C10.2125 0.25 11.9688 1.01562 13.3219 2.27813L11.2125 4.30625C8.45312 1.64375 3.32188 3.64375 3.32188 8C3.32188 10.7031 5.48125 12.8938 8.125 12.8938C11.1938 12.8938 12.3438 10.6938 12.525 9.55313H8.125V6.8875H15.5031C15.575 7.28437 15.625 7.66562 15.625 8.18125Z" fill="#334155"/>
</g>
</g>
<defs>
<clipPath id="clip0_13_146">
<rect width="15.25" height="16" fill="white" transform="translate(0.375)"/>
</clipPath>
<clipPath id="clip1_13_146">
<path d="M0.375 0H15.625V16H0.375V0Z" fill="white"/>
</clipPath>
</defs>
</svg>
