<svg width="384" height="384" viewBox="0 0 384 384" fill="none" xmlns="http://www.w3.org/2000/svg">
<path d="M48 28H336V316H48V28Z" stroke="#E5E7EB"/>
<g filter="url(#filter0_dd_23_92)">
<path d="M48 68C48 45.9086 65.9086 28 88 28H296C318.091 28 336 45.9086 336 68V276C336 298.091 318.091 316 296 316H88C65.9086 316 48 298.091 48 276V68Z" fill="url(#paint0_linear_23_92)"/>
<path d="M88 28.5H296C317.815 28.5 335.5 46.1848 335.5 68V276C335.5 297.815 317.815 315.5 296 315.5H88C66.1848 315.5 48.5 297.815 48.5 276V68C48.5 46.1848 66.1848 28.5 88 28.5Z" stroke="#E0E7FF" stroke-opacity="0.5"/>
<g clip-path="url(#clip0_23_92)">
<g clip-path="url(#clip1_23_92)">
<path d="M194.25 169.75V138.334C194.25 137.069 195.234 136 196.5 136C213.895 136 228 150.105 228 167.5C228 168.766 226.931 169.75 225.666 169.75H194.25ZM156 174.25C156 157.192 168.67 143.073 185.109 140.823C186.403 140.641 187.5 141.681 187.5 142.989V176.5L209.508 198.508C210.45 199.45 210.38 200.997 209.297 201.756C203.784 205.694 197.034 208 189.75 208C171.117 208 156 192.897 156 174.25ZM230.025 176.5C231.333 176.5 232.359 177.597 232.191 178.891C231.108 186.752 227.325 193.741 221.798 198.902C220.955 199.689 219.633 199.633 218.817 198.803L196.5 176.5H230.025Z" fill="#4F46E5"/>
</g>
</g>
<path d="M263.558 21.5576C263.558 12.7211 270.721 5.55763 279.558 5.55763H342.442C351.279 5.55763 358.442 12.7211 358.442 21.5576V84.4424C358.442 93.2789 351.279 100.442 342.442 100.442H279.558C270.721 100.442 263.558 93.2789 263.558 84.4424V21.5576Z" fill="#F3E8FF"/>
<path d="M263.558 21.5576C263.558 12.7211 270.721 5.55763 279.558 5.55763H342.442C351.279 5.55763 358.442 12.7211 358.442 21.5576V84.4424C358.442 93.2789 351.279 100.442 342.442 100.442H279.558C270.721 100.442 263.558 93.2789 263.558 84.4424V21.5576Z" stroke="#E5E7EB"/>
<path d="M298.234 39.0792H323.765V66.9208H298.234V39.0792Z" stroke="#E5E7EB"/>
<g clip-path="url(#clip2_23_92)">
<path d="M307.52 43.4294C307.52 41.9884 308.689 40.8193 310.13 40.8193H311.87C313.311 40.8193 314.48 41.9884 314.48 43.4294V62.5706C314.48 64.0116 313.311 65.1807 311.87 65.1807H310.13C308.689 65.1807 307.52 64.0116 307.52 62.5706V43.4294ZM298.819 53.8701C298.819 52.429 299.988 51.2599 301.429 51.2599H303.169C304.61 51.2599 305.78 52.429 305.78 53.8701V62.5706C305.78 64.0116 304.61 65.1807 303.169 65.1807H301.429C299.988 65.1807 298.819 64.0116 298.819 62.5706V53.8701ZM318.83 44.2995H320.57C322.011 44.2995 323.181 45.4686 323.181 46.9096V62.5706C323.181 64.0116 322.011 65.1807 320.57 65.1807H318.83C317.389 65.1807 316.22 64.0116 316.22 62.5706V46.9096C316.22 45.4686 317.389 44.2995 318.83 44.2995Z" fill="#9333EA"/>
</g>
<path d="M25 291C25 264.49 46.4903 243 73 243C99.5097 243 121 264.49 121 291C121 317.51 99.5097 339 73 339C46.4903 339 25 317.51 25 291Z" fill="#DBEAFE"/>
<path d="M25 291C25 264.49 46.4903 243 73 243C99.5097 243 121 264.49 121 291C121 317.51 99.5097 339 73 339C46.4903 339 25 317.51 25 291Z" stroke="#E5E7EB"/>
<path d="M59.875 276H86.125V306H59.875V276Z" stroke="#E5E7EB"/>
<g clip-path="url(#clip3_23_92)">
<path d="M63.625 277.875C61.5566 277.875 59.875 279.557 59.875 281.625V300.375C59.875 302.443 61.5566 304.125 63.625 304.125H82.375C84.4434 304.125 86.125 302.443 86.125 300.375V281.625C86.125 279.557 84.4434 277.875 82.375 277.875H63.625ZM67.375 289.125C68.4121 289.125 69.25 289.963 69.25 291V296.625C69.25 297.662 68.4121 298.5 67.375 298.5C66.3379 298.5 65.5 297.662 65.5 296.625V291C65.5 289.963 66.3379 289.125 67.375 289.125ZM71.125 285.375C71.125 284.338 71.9629 283.5 73 283.5C74.0371 283.5 74.875 284.338 74.875 285.375V296.625C74.875 297.662 74.0371 298.5 73 298.5C71.9629 298.5 71.125 297.662 71.125 296.625V285.375ZM78.625 292.875C79.6621 292.875 80.5 293.713 80.5 294.75V296.625C80.5 297.662 79.6621 298.5 78.625 298.5C77.5879 298.5 76.75 297.662 76.75 296.625V294.75C76.75 293.713 77.5879 292.875 78.625 292.875Z" fill="#2563EB"/>
</g>
</g>
<path d="M33.7368 53.7368C33.7368 31.6454 51.6454 13.7367 73.7368 13.7367H310.263C332.355 13.7367 350.263 31.6454 350.263 53.7367V290.263C350.263 312.355 332.355 330.263 310.263 330.263H73.7368C51.6454 330.263 33.7368 312.355 33.7368 290.263V53.7368Z" fill="#C7D2FE" fill-opacity="0.2"/>
<path d="M33.7368 53.7368C33.7368 31.6454 51.6454 13.7367 73.7368 13.7367H310.263C332.355 13.7367 350.263 31.6454 350.263 53.7367V290.263C350.263 312.355 332.355 330.263 310.263 330.263H73.7368C51.6454 330.263 33.7368 312.355 33.7368 290.263V53.7368Z" stroke="#E5E7EB"/>
<defs>
<filter id="filter0_dd_23_92" x="0" y="0.557629" width="383.442" height="383.442" filterUnits="userSpaceOnUse" color-interpolation-filters="sRGB">
<feFlood flood-opacity="0" result="BackgroundImageFix"/>
<feColorMatrix in="SourceAlpha" type="matrix" values="0 0 0 0 0 0 0 0 0 0 0 0 0 0 0 0 0 0 127 0" result="hardAlpha"/>
<feOffset dy="20"/>
<feGaussianBlur stdDeviation="12.5"/>
<feColorMatrix type="matrix" values="0 0 0 0 0 0 0 0 0 0 0 0 0 0 0 0 0 0 0.1 0"/>
<feBlend mode="normal" in2="BackgroundImageFix" result="effect1_dropShadow_23_92"/>
<feColorMatrix in="SourceAlpha" type="matrix" values="0 0 0 0 0 0 0 0 0 0 0 0 0 0 0 0 0 0 127 0" result="hardAlpha"/>
<feOffset dy="8"/>
<feGaussianBlur stdDeviation="5"/>
<feColorMatrix type="matrix" values="0 0 0 0 0 0 0 0 0 0 0 0 0 0 0 0 0 0 0.1 0"/>
<feBlend mode="normal" in2="effect1_dropShadow_23_92" result="effect2_dropShadow_23_92"/>
<feBlend mode="normal" in="SourceGraphic" in2="effect2_dropShadow_23_92" result="shape"/>
</filter>
<linearGradient id="paint0_linear_23_92" x1="48" y1="172" x2="336" y2="172" gradientUnits="userSpaceOnUse">
<stop stop-color="#E0E7FF"/>
<stop offset="1" stop-color="white"/>
</linearGradient>
<clipPath id="clip0_23_92">
<rect width="81" height="72" fill="white" transform="translate(151.5 136)"/>
</clipPath>
<clipPath id="clip1_23_92">
<path d="M151.5 136H232.5V208H151.5V136Z" fill="white"/>
</clipPath>
<clipPath id="clip2_23_92">
<path d="M298.819 39.0792H323.181V66.9208H298.819V39.0792Z" fill="white"/>
</clipPath>
<clipPath id="clip3_23_92">
<path d="M59.875 276H86.125V306H59.875V276Z" fill="white"/>
</clipPath>
</defs>
</svg>
