<svg width="24" height="20" viewBox="0 0 24 20" fill="none" xmlns="http://www.w3.org/2000/svg">
<g clip-path="url(#clip0_2_638)">
<path d="M16.375 0H7.625C6.58984 0 5.74609 0.851563 5.78516 1.88281C5.79297 2.08984 5.80078 2.29688 5.8125 2.5H1.6875C1.16797 2.5 0.75 2.91797 0.75 3.4375C0.75 7.05469 2.05859 9.57031 3.81641 11.2773C5.54688 12.9609 7.65625 13.8086 9.21094 14.2383C10.125 14.4922 10.75 15.2539 10.75 16.0195C10.75 16.8359 10.0859 17.5 9.26953 17.5H8.25C7.55859 17.5 7 18.0586 7 18.75C7 19.4414 7.55859 20 8.25 20H15.75C16.4414 20 17 19.4414 17 18.75C17 18.0586 16.4414 17.5 15.75 17.5H14.7305C13.9141 17.5 13.25 16.8359 13.25 16.0195C13.25 15.2539 13.8711 14.4883 14.7891 14.2383C16.3477 13.8086 18.457 12.9609 20.1875 11.2773C21.9414 9.57031 23.25 7.05469 23.25 3.4375C23.25 2.91797 22.832 2.5 22.3125 2.5H18.1875C18.1992 2.29688 18.207 2.09375 18.2148 1.88281C18.2539 0.851563 17.4102 0 16.375 0ZM2.66016 4.375H5.95703C6.3125 7.89453 7.09766 10.2461 7.98438 11.8203C7.01172 11.3906 6 10.7852 5.125 9.93359C3.875 8.71875 2.85938 6.96484 2.66406 4.375H2.66016ZM18.8789 9.93359C18.0039 10.7852 16.9922 11.3906 16.0195 11.8203C16.9062 10.2461 17.6914 7.89453 18.0469 4.375H21.3438C21.1445 6.96484 20.1289 8.71875 18.8828 9.93359H18.8789Z" fill="#FBBF24"/>
</g>
<defs>
<clipPath id="clip0_2_638">
<path d="M0.75 0H23.25V20H0.75V0Z" fill="white"/>
</clipPath>
</defs>
</svg>
