<svg width="48" height="48" viewBox="0 0 48 48" fill="none" xmlns="http://www.w3.org/2000/svg">
<path d="M0 8C0 3.58172 3.58172 0 8 0H40C44.4183 0 48 3.58172 48 8V40C48 44.4183 44.4183 48 40 48H8C3.58172 48 0 44.4183 0 40V8Z" fill="#F1F5F9"/>
<path d="M0 8C0 3.58172 3.58172 0 8 0H40C44.4183 0 48 3.58172 48 8V40C48 44.4183 44.4183 48 40 48H8C3.58172 48 0 44.4183 0 40V8Z" stroke="#E5E7EB"/>
<path d="M15.25 14H32.75V34H15.25V14Z" stroke="#E5E7EB"/>
<g clip-path="url(#clip0_13_1028)">
<path d="M20.875 19.625V21.5H27.125V19.625C27.125 17.8984 25.7266 16.5 24 16.5C22.2734 16.5 20.875 17.8984 20.875 19.625ZM18.375 21.5V19.625C18.375 16.5195 20.8945 14 24 14C27.1055 14 29.625 16.5195 29.625 19.625V21.5H30.25C31.6289 21.5 32.75 22.6211 32.75 24V31.5C32.75 32.8789 31.6289 34 30.25 34H17.75C16.3711 34 15.25 32.8789 15.25 31.5V24C15.25 22.6211 16.3711 21.5 17.75 21.5H18.375Z" fill="#94A3B8"/>
</g>
<defs>
<clipPath id="clip0_13_1028">
<path d="M15.25 14H32.75V34H15.25V14Z" fill="white"/>
</clipPath>
</defs>
</svg>
