<svg width="64" height="64" viewBox="0 0 64 64" fill="none" xmlns="http://www.w3.org/2000/svg">
<path d="M0 32C0 14.3269 14.3269 0 32 0C49.6731 0 64 14.3269 64 32C64 49.6731 49.6731 64 32 64C14.3269 64 0 49.6731 0 32Z" fill="#E0E7FF"/>
<path d="M0 32C0 14.3269 14.3269 0 32 0C49.6731 0 64 14.3269 64 32C64 49.6731 49.6731 64 32 64C14.3269 64 0 49.6731 0 32Z" stroke="#E5E7EB"/>
<path d="M21.5 20H42.5V44H21.5V20Z" stroke="#E5E7EB"/>
<g clip-path="url(#clip0_13_139)">
<path d="M32 32C33.5913 32 35.1174 31.3679 36.2426 30.2426C37.3679 29.1174 38 27.5913 38 26C38 24.4087 37.3679 22.8826 36.2426 21.7574C35.1174 20.6321 33.5913 20 32 20C30.4087 20 28.8826 20.6321 27.7574 21.7574C26.6321 22.8826 26 24.4087 26 26C26 27.5913 26.6321 29.1174 27.7574 30.2426C28.8826 31.3679 30.4087 32 32 32ZM29.8578 34.25C25.2406 34.25 21.5 37.9906 21.5 42.6078C21.5 43.3766 22.1234 44 22.8922 44H41.1078C41.8766 44 42.5 43.3766 42.5 42.6078C42.5 37.9906 38.7594 34.25 34.1422 34.25H29.8578Z" fill="#4F46E5"/>
</g>
<defs>
<clipPath id="clip0_13_139">
<path d="M21.5 20H42.5V44H21.5V20Z" fill="white"/>
</clipPath>
</defs>
</svg>
