<svg width="15" height="16" viewBox="0 0 15 16" fill="none" xmlns="http://www.w3.org/2000/svg">
<g clip-path="url(#clip0_32_309)">
<path d="M9.22812 1.4625C9.34375 1.18125 9.61875 1 9.92188 1H13.4219C13.8375 1 14.1719 1.33437 14.1719 1.75V5.25C14.1719 5.55312 13.9906 5.82812 13.7094 5.94375C13.4281 6.05937 13.1063 5.99688 12.8906 5.78125L11.8469 4.7375L10.2031 6.38125C10.8125 7.26875 11.1719 8.34063 11.1719 9.5C11.1719 12.5375 8.70937 15 5.67188 15C2.63438 15 0.171875 12.5375 0.171875 9.5C0.171875 6.4625 2.63438 4 5.67188 4C6.82812 4 7.90312 4.35625 8.79062 4.96875L10.4344 3.325L9.39062 2.28125C9.175 2.06562 9.1125 1.74375 9.22812 1.4625ZM5.67188 13C6.1315 13 6.58663 12.9095 7.01127 12.7336C7.43591 12.5577 7.82174 12.2999 8.14675 11.9749C8.47175 11.6499 8.72956 11.264 8.90545 10.8394C9.08135 10.4148 9.17188 9.95963 9.17188 9.5C9.17188 9.04037 9.08135 8.58525 8.90545 8.16061C8.72956 7.73597 8.47175 7.35013 8.14675 7.02513C7.82174 6.70012 7.43591 6.44231 7.01127 6.26642C6.58663 6.09053 6.1315 6 5.67188 6C5.21225 6 4.75712 6.09053 4.33248 6.26642C3.90784 6.44231 3.52201 6.70012 3.197 7.02513C2.872 7.35013 2.61419 7.73597 2.4383 8.16061C2.26241 8.58525 2.17188 9.04037 2.17188 9.5C2.17188 9.95963 2.26241 10.4148 2.4383 10.8394C2.61419 11.264 2.872 11.6499 3.197 11.9749C3.52201 12.2999 3.90784 12.5577 4.33248 12.7336C4.75712 12.9095 5.21225 13 5.67188 13Z" fill="white"/>
</g>
<defs>
<clipPath id="clip0_32_309">
<path d="M0.171875 0H14.1719V16H0.171875V0Z" fill="white"/>
</clipPath>
</defs>
</svg>
