<svg width="25" height="24" viewBox="0 0 25 24" fill="none" xmlns="http://www.w3.org/2000/svg">
<path d="M0.875 0H24.875V24H0.875V0Z" stroke="#E5E7EB"/>
<g clip-path="url(#clip0_44_161)">
<path d="M3.875 6.75C4.47174 6.75 5.04403 6.51295 5.46599 6.09099C5.88795 5.66903 6.125 5.09674 6.125 4.5C6.125 3.90326 5.88795 3.33097 5.46599 2.90901C5.04403 2.48705 4.47174 2.25 3.875 2.25C3.27826 2.25 2.70597 2.48705 2.28401 2.90901C1.86205 3.33097 1.625 3.90326 1.625 4.5C1.625 5.09674 1.86205 5.66903 2.28401 6.09099C2.70597 6.51295 3.27826 6.75 3.875 6.75ZM9.875 3C9.04531 3 8.375 3.67031 8.375 4.5C8.375 5.32969 9.04531 6 9.875 6H23.375C24.2047 6 24.875 5.32969 24.875 4.5C24.875 3.67031 24.2047 3 23.375 3H9.875ZM9.875 10.5C9.04531 10.5 8.375 11.1703 8.375 12C8.375 12.8297 9.04531 13.5 9.875 13.5H23.375C24.2047 13.5 24.875 12.8297 24.875 12C24.875 11.1703 24.2047 10.5 23.375 10.5H9.875ZM9.875 18C9.04531 18 8.375 18.6703 8.375 19.5C8.375 20.3297 9.04531 21 9.875 21H23.375C24.2047 21 24.875 20.3297 24.875 19.5C24.875 18.6703 24.2047 18 23.375 18H9.875ZM3.875 21.75C4.47174 21.75 5.04403 21.5129 5.46599 21.091C5.88795 20.669 6.125 20.0967 6.125 19.5C6.125 18.9033 5.88795 18.331 5.46599 17.909C5.04403 17.4871 4.47174 17.25 3.875 17.25C3.27826 17.25 2.70597 17.4871 2.28401 17.909C1.86205 18.331 1.625 18.9033 1.625 19.5C1.625 20.0967 1.86205 20.669 2.28401 21.091C2.70597 21.5129 3.27826 21.75 3.875 21.75ZM6.125 12C6.125 11.7045 6.0668 11.4119 5.95373 11.139C5.84066 10.866 5.67492 10.6179 5.46599 10.409C5.25706 10.2001 5.00902 10.0343 4.73604 9.92127C4.46306 9.8082 4.17047 9.75 3.875 9.75C3.57953 9.75 3.28694 9.8082 3.01396 9.92127C2.74098 10.0343 2.49294 10.2001 2.28401 10.409C2.07508 10.6179 1.90934 10.866 1.79627 11.139C1.6832 11.4119 1.625 11.7045 1.625 12C1.625 12.2955 1.6832 12.5881 1.79627 12.861C1.90934 13.134 2.07508 13.3821 2.28401 13.591C2.49294 13.7999 2.74098 13.9657 3.01396 14.0787C3.28694 14.1918 3.57953 14.25 3.875 14.25C4.17047 14.25 4.46306 14.1918 4.73604 14.0787C5.00902 13.9657 5.25706 13.7999 5.46599 13.591C5.67492 13.3821 5.84066 13.134 5.95373 12.861C6.0668 12.5881 6.125 12.2955 6.125 12Z" fill="white"/>
</g>
<defs>
<clipPath id="clip0_44_161">
<path d="M0.875 0H24.875V24H0.875V0Z" fill="white"/>
</clipPath>
</defs>
</svg>
