<svg width="18" height="20" viewBox="0 0 18 20" fill="none" xmlns="http://www.w3.org/2000/svg">
<path d="M0.453125 0H17.9531V20H0.453125V0Z" stroke="#E5E7EB"/>
<g clip-path="url(#clip0_13_1352)">
<path d="M9.20311 0C8.5117 0 7.95311 0.558594 7.95311 1.25V2C5.10155 2.57812 2.95311 5.10156 2.95311 8.125V8.85938C2.95311 10.6953 2.27733 12.4688 1.05858 13.8438L0.769516 14.168C0.441391 14.5352 0.363266 15.0625 0.562485 15.5117C0.761703 15.9609 1.21092 16.25 1.70311 16.25H16.7031C17.1953 16.25 17.6406 15.9609 17.8437 15.5117C18.0469 15.0625 17.9648 14.5352 17.6367 14.168L17.3476 13.8438C16.1289 12.4688 15.4531 10.6992 15.4531 8.85938V8.125C15.4531 5.10156 13.3047 2.57812 10.4531 2V1.25C10.4531 0.558594 9.89452 0 9.20311 0ZM10.9726 19.2695C11.4414 18.8008 11.7031 18.1641 11.7031 17.5H9.20311H6.70311C6.70311 18.1641 6.96483 18.8008 7.43358 19.2695C7.90233 19.7383 8.53905 20 9.20311 20C9.86717 20 10.5039 19.7383 10.9726 19.2695Z" fill="white"/>
</g>
<defs>
<clipPath id="clip0_13_1352">
<path d="M0.453125 0H17.9531V20H0.453125V0Z" fill="white"/>
</clipPath>
</defs>
</svg>
