<svg width="22" height="24" viewBox="0 0 22 24" fill="none" xmlns="http://www.w3.org/2000/svg">
<path d="M0.5 4H18V24H0.5V4Z" stroke="#E5E7EB"/>
<g clip-path="url(#clip0_13_1920)">
<g clip-path="url(#clip1_13_1920)">
<path d="M9.24998 4C8.55857 4 7.99998 4.55859 7.99998 5.25V5.94922C5.16795 6.39844 2.99998 8.85156 2.99998 11.8125V13.1172C2.99998 14.8906 2.39451 16.6133 1.28904 17.9961L0.707012 18.7266C0.48045 19.0078 0.437481 19.3945 0.593731 19.7188C0.749981 20.043 1.07811 20.25 1.43748 20.25H17.0625C17.4219 20.25 17.75 20.043 17.9062 19.7188C18.0625 19.3945 18.0195 19.0078 17.7929 18.7266L17.2109 18C16.1054 16.6133 15.5 14.8906 15.5 13.1172V11.8125C15.5 8.85156 13.332 6.39844 10.5 5.94922V5.25C10.5 4.55859 9.94139 4 9.24998 4ZM9.24998 7.75H9.56248C11.8047 7.75 13.625 9.57031 13.625 11.8125V13.1172C13.625 14.9883 14.1679 16.8125 15.1758 18.375H3.3242C4.33201 16.8125 4.87498 14.9883 4.87498 13.1172V11.8125C4.87498 9.57031 6.69529 7.75 8.93748 7.75H9.24998ZM11.75 21.5H9.24998H6.74998C6.74998 22.1641 7.0117 22.8008 7.48045 23.2695C7.9492 23.7383 8.58592 24 9.24998 24C9.91404 24 10.5508 23.7383 11.0195 23.2695C11.4883 22.8008 11.75 22.1641 11.75 21.5Z" fill="#1E1B4B"/>
</g>
</g>
<path d="M12 5C12 2.23858 14.2386 0 17 0C19.7614 0 22 2.23858 22 5C22 7.76142 19.7614 10 17 10C14.2386 10 12 7.76142 12 5Z" fill="#F43F5E"/>
<path d="M12 5C12 2.23858 14.2386 0 17 0C19.7614 0 22 2.23858 22 5C22 7.76142 19.7614 10 17 10C14.2386 10 12 7.76142 12 5Z" stroke="#E5E7EB"/>
<defs>
<clipPath id="clip0_13_1920">
<rect width="17.5" height="20" fill="white" transform="translate(0.5 4)"/>
</clipPath>
<clipPath id="clip1_13_1920">
<path d="M0.5 4H18V24H0.5V4Z" fill="white"/>
</clipPath>
</defs>
</svg>
