<svg width="40" height="40" viewBox="0 0 40 40" fill="none" xmlns="http://www.w3.org/2000/svg">
<path d="M0 12C0 5.37258 5.37258 0 12 0H28C34.6274 0 40 5.37258 40 12V28C40 34.6274 34.6274 40 28 40H12C5.37258 40 0 34.6274 0 28V12Z" fill="#4F46E5"/>
<path d="M0 12C0 5.37258 5.37258 0 12 0H28C34.6274 0 40 5.37258 40 12V28C40 34.6274 34.6274 40 28 40H12C5.37258 40 0 34.6274 0 28V12Z" stroke="#E5E7EB"/>
<path d="M11 11H29V29H11V11Z" stroke="#E5E7EB"/>
<g clip-path="url(#clip0_13_2097)">
<path d="M17.6973 13.4188L18.9207 15.5H18.875H16.3438C15.5668 15.5 14.9375 14.8707 14.9375 14.0938C14.9375 13.3168 15.5668 12.6875 16.3438 12.6875H16.4211C16.9449 12.6875 17.4336 12.9652 17.6973 13.4188ZM13.25 14.0938C13.25 14.6 13.373 15.0781 13.5875 15.5H12.125C11.5027 15.5 11 16.0027 11 16.625V18.875C11 19.4973 11.5027 20 12.125 20H27.875C28.4973 20 29 19.4973 29 18.875V16.625C29 16.0027 28.4973 15.5 27.875 15.5H26.4125C26.627 15.0781 26.75 14.6 26.75 14.0938C26.75 12.3852 25.3648 11 23.6562 11H23.5789C22.4574 11 21.4168 11.5941 20.8473 12.5609L20 14.0059L19.1527 12.5645C18.5832 11.5941 17.5426 11 16.4211 11H16.3438C14.6352 11 13.25 12.3852 13.25 14.0938ZM25.0625 14.0938C25.0625 14.8707 24.4332 15.5 23.6562 15.5H21.125H21.0793L22.3027 13.4188C22.5699 12.9652 23.0551 12.6875 23.5789 12.6875H23.6562C24.4332 12.6875 25.0625 13.3168 25.0625 14.0938ZM12.125 21.125V27.3125C12.125 28.2441 12.8809 29 13.8125 29H18.875V21.125H12.125ZM21.125 29H26.1875C27.1191 29 27.875 28.2441 27.875 27.3125V21.125H21.125V29Z" fill="white"/>
</g>
<defs>
<clipPath id="clip0_13_2097">
<path d="M11 11H29V29H11V11Z" fill="white"/>
</clipPath>
</defs>
</svg>
