<svg width="20" height="20" viewBox="0 0 20 20" fill="none" xmlns="http://www.w3.org/2000/svg">
<path d="M0 0H20V20H0V0Z" stroke="#E5E7EB"/>
<g clip-path="url(#clip0_13_2818)">
<path d="M4.55859 1.32031C4.73437 1.08203 5.01562 0.9375 5.3125 0.9375H14.6875C14.9844 0.9375 15.2656 1.07812 15.4414 1.32031L19.8164 7.25781C20.082 7.61719 20.0547 8.11328 19.7578 8.44531L10.6953 18.4453C10.5195 18.6406 10.2656 18.7539 10 18.7539C9.73437 18.7539 9.48437 18.6406 9.30469 18.4453L0.242187 8.44531C-0.0585944 8.11328 -0.0820319 7.61719 0.183593 7.25781L4.55859 1.32031ZM6.0625 2.875C5.93359 2.97266 5.89844 3.14844 5.98047 3.28516L8.22266 7.01953L2.47266 7.5C2.3125 7.51172 2.1875 7.64844 2.1875 7.8125C2.1875 7.97656 2.3125 8.10938 2.47266 8.125L9.97266 8.75C9.98828 8.75 10.0078 8.75 10.0234 8.75L17.5234 8.125C17.6836 8.11328 17.8086 7.97656 17.8086 7.8125C17.8086 7.64844 17.6836 7.51562 17.5234 7.5L11.7773 7.02344L14.0195 3.28906C14.1016 3.15234 14.0664 2.97266 13.9375 2.87891C13.8086 2.78516 13.6289 2.80078 13.5195 2.91797L10 6.72656L6.48047 2.91406C6.37109 2.79688 6.19141 2.78125 6.0625 2.875Z" fill="white"/>
</g>
<defs>
<clipPath id="clip0_13_2818">
<path d="M0 0H20V20H0V0Z" fill="white"/>
</clipPath>
</defs>
</svg>
