<svg width="64" height="64" viewBox="0 0 64 64" fill="none" xmlns="http://www.w3.org/2000/svg">
<path d="M0 12C0 5.37258 5.37258 0 12 0H52C58.6274 0 64 5.37258 64 12V52C64 58.6274 58.6274 64 52 64H12C5.37258 64 0 58.6274 0 52V12Z" fill="#DBEAFE"/>
<path d="M0 12C0 5.37258 5.37258 0 12 0H52C58.6274 0 64 5.37258 64 12V52C64 58.6274 58.6274 64 52 64H12C5.37258 64 0 58.6274 0 52V12Z" stroke="#E5E7EB"/>
<path d="M24.5 20H39.5V44H24.5V20Z" stroke="#E5E7EB"/>
<path d="M24.5 20H39.5V44H24.5V20Z" stroke="#E5E7EB"/>
<path d="M28.25 27.5C28.25 25.8453 29.5953 24.5 31.25 24.5H32.75C34.4047 24.5 35.75 25.8453 35.75 27.5V27.6688C35.75 28.6906 35.2297 29.6422 34.3719 30.1906L32.3937 31.4609C31.2125 32.2203 30.5 33.5281 30.5 34.9297V35C30.5 35.8297 31.1703 36.5 32 36.5C32.8297 36.5 33.5 35.8297 33.5 35V34.9344C33.5 34.55 33.6969 34.1937 34.0156 33.9875L35.9937 32.7172C37.7094 31.6109 38.75 29.7125 38.75 27.6688V27.5C38.75 24.1859 36.0641 21.5 32.75 21.5H31.25C27.9359 21.5 25.25 24.1859 25.25 27.5C25.25 28.3297 25.9203 29 26.75 29C27.5797 29 28.25 28.3297 28.25 27.5ZM32 42.5C32.4973 42.5 32.9742 42.3025 33.3258 41.9508C33.6775 41.5992 33.875 41.1223 33.875 40.625C33.875 40.1277 33.6775 39.6508 33.3258 39.2992C32.9742 38.9475 32.4973 38.75 32 38.75C31.5027 38.75 31.0258 38.9475 30.6742 39.2992C30.3225 39.6508 30.125 40.1277 30.125 40.625C30.125 41.1223 30.3225 41.5992 30.6742 41.9508C31.0258 42.3025 31.5027 42.5 32 42.5Z" fill="#2563EB"/>
</svg>
