<svg width="15" height="14" viewBox="0 0 15 14" fill="none" xmlns="http://www.w3.org/2000/svg">
<g clip-path="url(#clip0_13_4224)">
<g clip-path="url(#clip1_13_4224)">
<path d="M7.6719 0.875C8.06018 0.875 8.41839 1.08008 8.61526 1.41641L14.5215 11.4789C14.7211 11.818 14.7211 12.2363 14.527 12.5754C14.3328 12.9145 13.9692 13.125 13.5782 13.125H1.76565C1.37464 13.125 1.01097 12.9145 0.816825 12.5754C0.622685 12.2363 0.625419 11.8152 0.822294 11.4789L6.72854 1.41641C6.92542 1.08008 7.28362 0.875 7.6719 0.875ZM7.6719 4.375C7.30823 4.375 7.01565 4.66758 7.01565 5.03125V8.09375C7.01565 8.45742 7.30823 8.75 7.6719 8.75C8.03558 8.75 8.32815 8.45742 8.32815 8.09375V5.03125C8.32815 4.66758 8.03558 4.375 7.6719 4.375ZM8.5469 10.5C8.5469 10.2679 8.45472 10.0454 8.29062 9.88128C8.12653 9.71719 7.90397 9.625 7.6719 9.625C7.43984 9.625 7.21728 9.71719 7.05318 9.88128C6.88909 10.0454 6.7969 10.2679 6.7969 10.5C6.7969 10.7321 6.88909 10.9546 7.05318 11.1187C7.21728 11.2828 7.43984 11.375 7.6719 11.375C7.90397 11.375 8.12653 11.2828 8.29062 11.1187C8.45472 10.9546 8.5469 10.7321 8.5469 10.5Z" fill="#E11D48"/>
</g>
</g>
<defs>
<clipPath id="clip0_13_4224">
<rect width="14" height="14" fill="white" transform="translate(0.671875)"/>
</clipPath>
<clipPath id="clip1_13_4224">
<path d="M0.671875 0H14.6719V14H0.671875V0Z" fill="white"/>
</clipPath>
</defs>
</svg>
