<svg width="18" height="20" viewBox="0 0 18 20" fill="none" xmlns="http://www.w3.org/2000/svg">
<path d="M0.25 0H17.75V20H0.25V0Z" stroke="#E5E7EB"/>
<g clip-path="url(#clip0_13_2807)">
<path d="M13.8984 1.7423C14.1289 1.20714 13.957 0.582141 13.4844 0.238391C13.0117 -0.10536 12.3672 -0.0741095 11.9258 0.308703L1.92578 9.0587C1.53516 9.40245 1.39453 9.95323 1.57813 10.4376C1.76172 10.922 2.23047 11.2501 2.75 11.2501H7.10547L4.10156 18.2579C3.8711 18.7931 4.04297 19.4181 4.51563 19.7618C4.98828 20.1056 5.63281 20.0743 6.07422 19.6915L16.0742 10.9415C16.4648 10.5978 16.6055 10.047 16.4219 9.56261C16.2383 9.07823 15.7734 8.75402 15.25 8.75402H10.8945L13.8984 1.7423Z" fill="white"/>
</g>
<defs>
<clipPath id="clip0_13_2807">
<path d="M0.25 0H17.75V20H0.25V0Z" fill="white"/>
</clipPath>
</defs>
</svg>
