<svg width="21" height="20" viewBox="0 0 21 20" fill="none" xmlns="http://www.w3.org/2000/svg">
<path d="M0.578125 0H20.5781V20H0.578125V0Z" stroke="#E5E7EB"/>
<path d="M0.578125 0H20.5781V20H0.578125V0Z" stroke="#E5E7EB"/>
<path d="M10.5781 0C10.7578 0 10.9375 0.0390625 11.1016 0.113281L18.4571 3.23438C19.3164 3.59766 19.957 4.44531 19.9531 5.46875C19.9336 9.34375 18.3399 16.4336 11.6094 19.6562C10.957 19.9688 10.1992 19.9688 9.54689 19.6562C2.81642 16.4336 1.22267 9.34375 1.20314 5.46875C1.19924 4.44531 1.83986 3.59766 2.69924 3.23438L10.0586 0.113281C10.2188 0.0390625 10.3985 0 10.5781 0ZM10.5781 2.60938V17.375C15.9688 14.7656 17.418 8.98828 17.4531 5.52344L10.5781 2.60938Z" fill="white"/>
</svg>
