<svg width="21" height="20" viewBox="0 0 21 20" fill="none" xmlns="http://www.w3.org/2000/svg">
<path d="M0.703125 0H20.7031V20H0.703125V0Z" stroke="#E5E7EB"/>
<g clip-path="url(#clip0_13_1340)">
<path d="M10.7031 0C13.3553 0 15.8988 1.05357 17.7742 2.92893C19.6496 4.8043 20.7031 7.34784 20.7031 10C20.7031 12.6522 19.6496 15.1957 17.7742 17.0711C15.8988 18.9464 13.3553 20 10.7031 20C8.05096 20 5.50742 18.9464 3.63206 17.0711C1.75669 15.1957 0.703125 12.6522 0.703125 10C0.703125 7.34784 1.75669 4.8043 3.63206 2.92893C5.50742 1.05357 8.05096 0 10.7031 0ZM9.76562 4.6875V10C9.76562 10.3125 9.92188 10.6055 10.1836 10.7812L13.9336 13.2812C14.3633 13.5703 14.9453 13.4531 15.2344 13.0195C15.5234 12.5859 15.4062 12.0078 14.9727 11.7188L11.6406 9.5V4.6875C11.6406 4.16797 11.2227 3.75 10.7031 3.75C10.1836 3.75 9.76562 4.16797 9.76562 4.6875Z" fill="white"/>
</g>
<defs>
<clipPath id="clip0_13_1340">
<path d="M0.703125 0H20.7031V20H0.703125V0Z" fill="white"/>
</clipPath>
</defs>
</svg>
