<svg width="20" height="20" viewBox="0 0 20 20" fill="none" xmlns="http://www.w3.org/2000/svg">
<path d="M0.3125 0H19.6875V20H0.3125V0Z" stroke="#E5E7EB"/>
<g clip-path="url(#clip0_13_2832)">
<path d="M10 0.3125C4.65234 0.3125 0.3125 4.65234 0.3125 10C0.3125 15.3477 4.65234 19.6875 10 19.6875C15.3477 19.6875 19.6875 15.3477 19.6875 10C19.6875 4.65234 15.3477 0.3125 10 0.3125ZM13.9336 14.5664C13.7695 14.5664 13.668 14.5156 13.5156 14.4258C11.0781 12.957 8.24219 12.8945 5.44141 13.4688C5.28906 13.5078 5.08984 13.5703 4.97656 13.5703C4.59766 13.5703 4.35938 13.2695 4.35938 12.9531C4.35938 12.5508 4.59766 12.3594 4.89062 12.2969C8.08984 11.5898 11.3594 11.6523 14.1484 13.3203C14.3867 13.4727 14.5273 13.6094 14.5273 13.9648C14.5273 14.3203 14.25 14.5664 13.9336 14.5664ZM14.9844 12.0039C14.7812 12.0039 14.6445 11.9141 14.5039 11.8398C12.0625 10.3945 8.42188 9.8125 5.18359 10.6914C4.99609 10.7422 4.89453 10.793 4.71875 10.793C4.30078 10.793 3.96094 10.4531 3.96094 10.0352C3.96094 9.61719 4.16406 9.33984 4.56641 9.22656C5.65234 8.92188 6.76172 8.69531 8.38672 8.69531C10.9219 8.69531 13.3711 9.32422 15.3008 10.4727C15.6172 10.6602 15.7422 10.9023 15.7422 11.2422C15.7383 11.6641 15.4102 12.0039 14.9844 12.0039ZM16.1953 9.02734C15.9922 9.02734 15.8672 8.97656 15.6914 8.875C12.9102 7.21484 7.9375 6.81641 4.71875 7.71484C4.57812 7.75391 4.40234 7.81641 4.21484 7.81641C3.69922 7.81641 3.30469 7.41406 3.30469 6.89453C3.30469 6.36328 3.63281 6.0625 3.98438 5.96094C5.35938 5.55859 6.89844 5.36719 8.57422 5.36719C11.4258 5.36719 14.4141 5.96094 16.5977 7.23438C16.9023 7.41016 17.1016 7.65234 17.1016 8.11719C17.1016 8.64844 16.6719 9.02734 16.1953 9.02734Z" fill="white"/>
</g>
<defs>
<clipPath id="clip0_13_2832">
<path d="M0.3125 0H19.6875V20H0.3125V0Z" fill="white"/>
</clipPath>
</defs>
</svg>
