<svg width="40" height="40" viewBox="0 0 40 40" fill="none" xmlns="http://www.w3.org/2000/svg">
<path d="M0 12C0 5.37258 5.37258 0 12 0H28C34.6274 0 40 5.37258 40 12V28C40 34.6274 34.6274 40 28 40H12C5.37258 40 0 34.6274 0 28V12Z" fill="#F3E8FF"/>
<path d="M0 12C0 5.37258 5.37258 0 12 0H28C34.6274 0 40 5.37258 40 12V28C40 34.6274 34.6274 40 28 40H12C5.37258 40 0 34.6274 0 28V12Z" stroke="#E5E7EB"/>
<path d="M14 12H26V28H14V12Z" stroke="#E5E7EB"/>
<g clip-path="url(#clip0_13_4506)">
<path d="M20 12C18.6937 12 17.5812 12.8344 17.1719 14H16C14.8969 14 14 14.8969 14 16V26C14 27.1031 14.8969 28 16 28H24C25.1031 28 26 27.1031 26 26V16C26 14.8969 25.1031 14 24 14H22.8281C22.4187 12.8344 21.3063 12 20 12ZM20 14C20.2652 14 20.5196 14.1054 20.7071 14.2929C20.8946 14.4804 21 14.7348 21 15C21 15.2652 20.8946 15.5196 20.7071 15.7071C20.5196 15.8946 20.2652 16 20 16C19.7348 16 19.4804 15.8946 19.2929 15.7071C19.1054 15.5196 19 15.2652 19 15C19 14.7348 19.1054 14.4804 19.2929 14.2929C19.4804 14.1054 19.7348 14 20 14ZM16.25 20.5C16.25 20.3011 16.329 20.1103 16.4697 19.9697C16.6103 19.829 16.8011 19.75 17 19.75C17.1989 19.75 17.3897 19.829 17.5303 19.9697C17.671 20.1103 17.75 20.3011 17.75 20.5C17.75 20.6989 17.671 20.8897 17.5303 21.0303C17.3897 21.171 17.1989 21.25 17 21.25C16.8011 21.25 16.6103 21.171 16.4697 21.0303C16.329 20.8897 16.25 20.6989 16.25 20.5ZM19.5 20H23.5C23.775 20 24 20.225 24 20.5C24 20.775 23.775 21 23.5 21H19.5C19.225 21 19 20.775 19 20.5C19 20.225 19.225 20 19.5 20ZM16.25 23.5C16.25 23.3011 16.329 23.1103 16.4697 22.9697C16.6103 22.829 16.8011 22.75 17 22.75C17.1989 22.75 17.3897 22.829 17.5303 22.9697C17.671 23.1103 17.75 23.3011 17.75 23.5C17.75 23.6989 17.671 23.8897 17.5303 24.0303C17.3897 24.171 17.1989 24.25 17 24.25C16.8011 24.25 16.6103 24.171 16.4697 24.0303C16.329 23.8897 16.25 23.6989 16.25 23.5ZM19 23.5C19 23.225 19.225 23 19.5 23H23.5C23.775 23 24 23.225 24 23.5C24 23.775 23.775 24 23.5 24H19.5C19.225 24 19 23.775 19 23.5Z" fill="#9333EA"/>
</g>
<defs>
<clipPath id="clip0_13_4506">
<path d="M14 12H26V28H14V12Z" fill="white"/>
</clipPath>
</defs>
</svg>
