<svg width="28" height="24" viewBox="0 0 28 24" fill="none" xmlns="http://www.w3.org/2000/svg">
<path d="M0.5 0H27.5V24H0.5V0Z" stroke="#E5E7EB"/>
<g clip-path="url(#clip0_13_2788)">
<path d="M14.9844 4.96875C15.5188 4.64062 15.875 4.04531 15.875 3.375C15.875 2.33906 15.0359 1.5 14 1.5C12.9641 1.5 12.125 2.33906 12.125 3.375C12.125 4.05 12.4812 4.64062 13.0156 4.96875L10.3297 10.3406C9.90312 11.1938 8.79688 11.4375 8.05156 10.8422L3.875 7.5C4.10938 7.18594 4.25 6.79688 4.25 6.375C4.25 5.33906 3.41094 4.5 2.375 4.5C1.33906 4.5 0.5 5.33906 0.5 6.375C0.5 7.41094 1.33906 8.25 2.375 8.25C2.38437 8.25 2.39844 8.25 2.40781 8.25L4.55 20.0344C4.80781 21.4594 6.05 22.5 7.50312 22.5H20.4969C21.9453 22.5 23.1875 21.4641 23.45 20.0344L25.5922 8.25C25.6016 8.25 25.6156 8.25 25.625 8.25C26.6609 8.25 27.5 7.41094 27.5 6.375C27.5 5.33906 26.6609 4.5 25.625 4.5C24.5891 4.5 23.75 5.33906 23.75 6.375C23.75 6.79688 23.8906 7.18594 24.125 7.5L19.9484 10.8422C19.2031 11.4375 18.0969 11.1938 17.6703 10.3406L14.9844 4.96875Z" fill="#FBBF24"/>
</g>
<defs>
<clipPath id="clip0_13_2788">
<path d="M0.5 0H27.5V24H0.5V0Z" fill="white"/>
</clipPath>
</defs>
</svg>
