<svg width="48" height="48" viewBox="0 0 48 48" fill="none" xmlns="http://www.w3.org/2000/svg">
<path d="M0 8C0 3.58172 3.58172 0 8 0H40C44.4183 0 48 3.58172 48 8V40C48 44.4183 44.4183 48 40 48H8C3.58172 48 0 44.4183 0 40V8Z" fill="#FFE4E6"/>
<path d="M0 8C0 3.58172 3.58172 0 8 0H40C44.4183 0 48 3.58172 48 8V40C48 44.4183 44.4183 48 40 48H8C3.58172 48 0 44.4183 0 40V8Z" stroke="#E5E7EB"/>
<path d="M12.75 14H35.25V34H12.75V14Z" stroke="#E5E7EB"/>
<g clip-path="url(#clip0_13_1024)">
<path d="M24.8203 18.1406C25.2656 17.8672 25.5625 17.3711 25.5625 16.8125C25.5625 15.9492 24.8633 15.25 24 15.25C23.1367 15.25 22.4375 15.9492 22.4375 16.8125C22.4375 17.375 22.7344 17.8672 23.1797 18.1406L20.9414 22.6172C20.5859 23.3281 19.6641 23.5312 19.043 23.0352L15.5625 20.25C15.7578 19.9883 15.875 19.6641 15.875 19.3125C15.875 18.4492 15.1758 17.75 14.3125 17.75C13.4492 17.75 12.75 18.4492 12.75 19.3125C12.75 20.1758 13.4492 20.875 14.3125 20.875C14.3203 20.875 14.332 20.875 14.3398 20.875L16.125 30.6953C16.3398 31.8828 17.375 32.75 18.5859 32.75H29.4141C30.6211 32.75 31.6562 31.8867 31.875 30.6953L33.6602 20.875C33.668 20.875 33.6797 20.875 33.6875 20.875C34.5508 20.875 35.25 20.1758 35.25 19.3125C35.25 18.4492 34.5508 17.75 33.6875 17.75C32.8242 17.75 32.125 18.4492 32.125 19.3125C32.125 19.6641 32.2422 19.9883 32.4375 20.25L28.957 23.0352C28.3359 23.5312 27.4141 23.3281 27.0586 22.6172L24.8203 18.1406Z" fill="#E11D48"/>
</g>
<defs>
<clipPath id="clip0_13_1024">
<path d="M12.75 14H35.25V34H12.75V14Z" fill="white"/>
</clipPath>
</defs>
</svg>
