<svg width="40" height="40" viewBox="0 0 40 40" fill="none" xmlns="http://www.w3.org/2000/svg">
<path d="M0 12C0 5.37258 5.37258 0 12 0H28C34.6274 0 40 5.37258 40 12V28C40 34.6274 34.6274 40 28 40H12C5.37258 40 0 34.6274 0 28V12Z" fill="#F1F5F9"/>
<path d="M0 12C0 5.37258 5.37258 0 12 0H28C34.6274 0 40 5.37258 40 12V28C40 34.6274 34.6274 40 28 40H12C5.37258 40 0 34.6274 0 28V12Z" stroke="#E5E7EB"/>
<path d="M9.875 11H30.125V29H9.875V11Z" stroke="#E5E7EB"/>
<g clip-path="url(#clip0_13_2105)">
<path d="M9.875 15.5C9.875 14.259 10.884 13.25 12.125 13.25H21.125C22.366 13.25 23.375 14.259 23.375 15.5V24.5C23.375 25.741 22.366 26.75 21.125 26.75H12.125C10.884 26.75 9.875 25.741 9.875 24.5V15.5ZM29.5309 14.5086C29.8965 14.7055 30.125 15.0852 30.125 15.5V24.5C30.125 24.9148 29.8965 25.2945 29.5309 25.4914C29.1652 25.6883 28.7223 25.6672 28.3742 25.4352L24.9992 23.1852L24.5 22.8512V22.25V17.75V17.1488L24.9992 16.8148L28.3742 14.5648C28.7188 14.3363 29.1617 14.3117 29.5309 14.5086Z" fill="#475569"/>
</g>
<defs>
<clipPath id="clip0_13_2105">
<path d="M9.875 11H30.125V29H9.875V11Z" fill="white"/>
</clipPath>
</defs>
</svg>
