<svg width="64" height="64" viewBox="0 0 64 64" fill="none" xmlns="http://www.w3.org/2000/svg">
<path d="M0 12C0 5.37258 5.37258 0 12 0H52C58.6274 0 64 5.37258 64 12V52C64 58.6274 58.6274 64 52 64H12C5.37258 64 0 58.6274 0 52V12Z" fill="#EDE9FE"/>
<path d="M0 12C0 5.37258 5.37258 0 12 0H52C58.6274 0 64 5.37258 64 12V52C64 58.6274 58.6274 64 52 64H12C5.37258 64 0 58.6274 0 52V12Z" stroke="#E5E7EB"/>
<path d="M18.5 20H45.5V44H18.5V20Z" stroke="#E5E7EB"/>
<g clip-path="url(#clip0_13_495)">
<path d="M18.5 26C18.5 24.3453 19.8453 23 21.5 23H33.5C35.1547 23 36.5 24.3453 36.5 26V38C36.5 39.6547 35.1547 41 33.5 41H21.5C19.8453 41 18.5 39.6547 18.5 38V26ZM44.7078 24.6781C45.1953 24.9406 45.5 25.4469 45.5 26V38C45.5 38.5531 45.1953 39.0594 44.7078 39.3219C44.2203 39.5844 43.6297 39.5562 43.1656 39.2469L38.6656 36.2469L38 35.8016V35V29V28.1984L38.6656 27.7531L43.1656 24.7531C43.625 24.4484 44.2156 24.4156 44.7078 24.6781Z" fill="#7C3AED"/>
</g>
<defs>
<clipPath id="clip0_13_495">
<path d="M18.5 20H45.5V44H18.5V20Z" fill="white"/>
</clipPath>
</defs>
</svg>
