<svg width="21" height="16" viewBox="0 0 21 16" fill="none" xmlns="http://www.w3.org/2000/svg">
<path d="M0.203125 0H20.2031V16H0.203125V0Z" stroke="#E5E7EB"/>
<g clip-path="url(#clip0_13_2274)">
<path d="M1.89687 6.34062C4.05312 4.27187 6.97813 3 10.2031 3C13.4281 3 16.3531 4.27187 18.5094 6.34062C18.9094 6.72187 19.5406 6.70937 19.9219 6.3125C20.3031 5.91563 20.2906 5.28125 19.8937 4.9C17.3812 2.48438 13.9656 1 10.2031 1C6.44063 1 3.025 2.48438 0.509375 4.89687C0.1125 5.28125 0.0999999 5.9125 0.48125 6.3125C0.8625 6.7125 1.49687 6.725 1.89375 6.34062H1.89687ZM10.2031 8C11.9781 8 13.5969 8.65938 14.8344 9.75C15.25 10.1156 15.8812 10.075 16.2469 9.6625C16.6125 9.25 16.5719 8.61562 16.1594 8.25C14.5719 6.85 12.4844 6 10.2031 6C7.92188 6 5.83437 6.85 4.25 8.25C3.83437 8.61562 3.79688 9.24688 4.1625 9.6625C4.52812 10.0781 5.15937 10.1156 5.575 9.75C6.80937 8.65938 8.42813 8 10.2063 8H10.2031ZM12.2031 13C12.2031 12.4696 11.9924 11.9609 11.6173 11.5858C11.2423 11.2107 10.7336 11 10.2031 11C9.67269 11 9.16398 11.2107 8.78891 11.5858C8.41384 11.9609 8.20312 12.4696 8.20312 13C8.20312 13.5304 8.41384 14.0391 8.78891 14.4142C9.16398 14.7893 9.67269 15 10.2031 15C10.7336 15 11.2423 14.7893 11.6173 14.4142C11.9924 14.0391 12.2031 13.5304 12.2031 13Z" fill="#4F46E5"/>
</g>
<defs>
<clipPath id="clip0_13_2274">
<path d="M0.203125 0H20.2031V16H0.203125V0Z" fill="white"/>
</clipPath>
</defs>
</svg>
