<svg width="32" height="32" viewBox="0 0 32 32" fill="none" xmlns="http://www.w3.org/2000/svg">
<path d="M0 8C0 3.58172 3.58172 0 8 0H24C28.4183 0 32 3.58172 32 8V24C32 28.4183 28.4183 32 24 32H8C3.58172 32 0 28.4183 0 24V8Z" fill="#FFE4E6"/>
<path d="M0 8C0 3.58172 3.58172 0 8 0H24C28.4183 0 32 3.58172 32 8V24C32 28.4183 28.4183 32 24 32H8C3.58172 32 0 28.4183 0 24V8Z" stroke="#E5E7EB"/>
<path d="M6 8H26V24H6V8Z" stroke="#E5E7EB"/>
<g clip-path="url(#clip0_13_3677)">
<path d="M13 16C14.0609 16 15.0783 15.5786 15.8284 14.8284C16.5786 14.0783 17 13.0609 17 12C17 10.9391 16.5786 9.92172 15.8284 9.17157C15.0783 8.42143 14.0609 8 13 8C11.9391 8 10.9217 8.42143 10.1716 9.17157C9.42143 9.92172 9 10.9391 9 12C9 13.0609 9.42143 14.0783 10.1716 14.8284C10.9217 15.5786 11.9391 16 13 16ZM11.5719 17.5C8.49375 17.5 6 19.9937 6 23.0719C6 23.5844 6.41563 24 6.92813 24H19.0719C19.1281 24 19.1813 23.9937 19.2375 23.9844C16.8531 22.2625 16.1187 19.5781 16.0156 17.7281C15.5125 17.5781 14.9812 17.5 14.4312 17.5H11.5719ZM21.2219 15.0531L17.4719 16.5531C17.1875 16.6688 17 16.9438 17 17.25C17 19.2281 17.8094 22.525 21.2125 23.9438C21.3969 24.0219 21.6062 24.0219 21.7906 23.9438C25.1906 22.525 26 19.2281 26 17.25C26 16.9438 25.8125 16.6688 25.5281 16.5531L21.7781 15.0531C21.6 14.9812 21.4 14.9812 21.2219 15.0531ZM24.4813 17.75C24.3594 19.3344 23.6313 21.3969 21.5 22.4281V16.5562L24.4813 17.75Z" fill="#E11D48"/>
</g>
<defs>
<clipPath id="clip0_13_3677">
<path d="M6 8H26V24H6V8Z" fill="white"/>
</clipPath>
</defs>
</svg>
